<?xml version="1.0" encoding="utf-8"?>
<!-- Generator: Adobe Illustrator 16.0.0, SVG Export Plug-In . SVG Version: 6.00 Build 0)  -->
<!DOCTYPE svg PUBLIC "-//W3C//DTD SVG 1.1//EN" "http://www.w3.org/Graphics/SVG/1.1/DTD/svg11.dtd">
<svg version="1.1" id="Layer_1" xmlns="http://www.w3.org/2000/svg" xmlns:xlink="http://www.w3.org/1999/xlink" x="0px" y="0px"
	 width="566.93px" height="141.73px" viewBox="0 0 566.93 141.73" enable-background="new 0 0 566.93 141.73" xml:space="preserve">
<g>
	<g>
		<g>
			
				<text transform="matrix(0.8766 0 0 1 185.1147 129.9736)" fill="#FFFFFF" stroke="#000000" stroke-width="0.5" stroke-miterlimit="10" font-family="'SourceHanSansK-Medium'" font-size="40.7353">혈액관리본부</text>
		</g>
	</g>
	<g>
		<path fill="#FFFFFF" stroke="#000000" stroke-miterlimit="10" d="M225.679,23.363v15.89h-6.475v-15.89h-8.444V59.92h-17.209
			V29.942h12.291v-6.579h-20.725v38.37c0,2.775,2.09,4.773,4.357,4.773l21.287-0.011v16.211h8.444V45.818h6.475v36.889h8.431V23.363
			H225.679z"/>
		<path fill="#FFFFFF" stroke="#000000" stroke-miterlimit="10" d="M261.85,59.273h-8.438v18.674c0,2.764,2.085,4.76,4.351,4.76
			h32.973v-6.573H261.85V59.273z"/>
		<path fill="#FFFFFF" stroke="#000000" stroke-miterlimit="10" d="M339.62,82.713h8.437v-18.02c0-2.764-2.091-4.76-4.353-4.76
			h-33.553v6.573h29.469V82.713z"/>
		<path fill="#FFFFFF" stroke="#000000" stroke-miterlimit="10" d="M274.363,38.997c0-3.399-1.053-6.623-2.85-9.065h4.665v-6.574
			h-12.573v-6.194h-8.435v6.194h-12.559v6.574h4.647c-1.779,2.442-2.846,5.666-2.846,9.065c0,8.558,6.709,15.489,14.972,15.489
			C267.656,54.486,274.363,47.555,274.363,38.997 M252.463,38.997c0-4.78,3.112-8.637,6.921-8.637c3.824,0,6.932,3.857,6.932,8.637
			c0,4.761-3.108,8.624-6.932,8.624C255.576,47.621,252.463,43.758,252.463,38.997"/>
		<polygon fill="#FFFFFF" stroke="#000000" stroke-miterlimit="10" points="289.536,36.115 289.536,23.363 281.09,23.363 
			281.09,62.687 289.536,62.687 289.536,42.677 297.427,42.677 297.427,36.115 		"/>
		<path fill="#FFFFFF" stroke="#000000" stroke-miterlimit="10" d="M434.617,34.408v-4.493h10.835v-6.552h-30.661v6.552h10.824
			v4.493c0,8.286-5.039,18.744-12.463,24.338l3.828,5.021c0,0,8.696-6.235,13.128-13.905c4.442,7.67,13.14,13.905,13.14,13.905
			l3.824-5.021C439.642,53.152,434.617,42.694,434.617,34.408"/>
		<polygon fill="#FFFFFF" stroke="#000000" stroke-miterlimit="10" points="459.416,37.602 459.416,23.366 450.984,23.366 
			450.984,82.707 459.416,82.707 459.416,44.177 468.412,44.177 468.412,37.602 		"/>
		<path fill="#FFFFFF" stroke="#000000" stroke-miterlimit="10" d="M490.32,30.808v-7.444h-9.013v7.444
			c0,18.366-12.202,28.269-12.202,28.269l3.571,4.69c0,0,8.459-5.64,13.146-14.455c4.652,8.815,13.117,14.455,13.117,14.455
			l3.577-4.69C502.518,59.076,490.32,49.174,490.32,30.808"/>
		<polygon fill="#FFFFFF" stroke="#000000" stroke-miterlimit="10" points="524.409,37.602 515.417,37.602 515.417,23.366 
			506.978,23.366 506.978,82.707 515.417,82.707 515.417,44.177 524.409,44.177 		"/>
		<g>
			<path fill="#FFFFFF" stroke="#000000" stroke-miterlimit="10" d="M395.584,58.15v6.518h-19.575V58.15h-8.429v20
				c0,2.23,1.622,4.75,4.354,4.75h32.08V58.15H395.584z M395.584,76.805h-19.575v-6.03h19.575V76.805z"/>
		</g>
		<path fill="#FFFFFF" stroke="#000000" stroke-miterlimit="10" d="M373.054,42.792c3.596,5.663,9.65,10.149,13.992,12.233
			l3.021-4.548c-6.961-4.536-12.513-13.34-12.513-22.48v-4.634h-9.007v4.634c0,9.14-5.55,17.944-12.505,22.48l3.017,4.548
			C363.409,52.941,369.452,48.455,373.054,42.792"/>
		<rect x="395.551" y="23.361" fill="#FFFFFF" stroke="#000000" stroke-miterlimit="10" width="8.44" height="31.646"/>
		<path fill="#FFFFFF" stroke="#000000" stroke-miterlimit="10" d="M317.111,43.751c3.731,5.123,9.754,9.756,13.577,11.274
			l2.946-4.55c-6.338-3.929-12.007-10.255-12.007-18.488v-2.078h10.293v-6.546h-29.584v6.546h10.271v2.078
			c0,8.233-5.679,14.56-11.995,18.488l2.919,4.55C307.371,53.507,313.381,48.874,317.111,43.751"/>
		<polygon fill="#FFFFFF" stroke="#000000" stroke-miterlimit="10" points="339.562,23.363 339.562,34.959 330.023,34.959 
			330.023,41.531 339.562,41.531 339.562,56.389 347.998,56.389 347.998,23.363 		"/>
	</g>
	<polygon fill="#ED1C24" points="119.181,50.073 119.181,8.541 80.847,8.541 80.847,50.073 42.521,50.073 42.521,91.633 
		80.847,91.633 80.847,133.189 119.181,133.189 119.181,91.633 157.549,91.633 157.549,50.073 	"/>
</g>
</svg>
